<?xml version="1.0" standalone="no"?>
<!DOCTYPE svg PUBLIC "-//W3C//DTD SVG 20010904//EN"
 "http://www.w3.org/TR/2001/REC-SVG-20010904/DTD/svg10.dtd">
<svg version="1.0" xmlns="http://www.w3.org/2000/svg"
 width="1920.000000pt" height="479.000000pt" viewBox="0 0 1920.000000 479.000000"
 preserveAspectRatio="xMidYMid meet">
<metadata>
Created by potrace 1.16, written by Peter Selinger 2001-2019
</metadata>
<g transform="translate(0.000000,479.000000) scale(0.100000,-0.100000)"
fill="#000000" stroke="none">
<path d="M9025 4751 c-114 -182 -518 -976 -669 -1316 -525 -1181 -715 -2103
-561 -2710 93 -369 317 -616 635 -700 101 -27 335 -32 457 -10 526 94 1014
508 1173 995 44 135 60 237 59 379 -1 128 -31 409 -41 381 -3 -8 -18 -87 -33
-174 -35 -203 -64 -305 -124 -432 -68 -141 -139 -244 -245 -350 -204 -203
-431 -305 -681 -305 -417 1 -701 292 -801 821 -25 131 -30 497 -10 690 55 518
243 1152 554 1865 84 193 264 572 338 711 72 134 72 194 2 194 -21 0 -33 -9
-53 -39z"/>
<path d="M695 2894 c-263 -43 -488 -211 -613 -459 -63 -127 -77 -193 -77 -375
0 -145 3 -174 23 -240 87 -274 288 -479 552 -562 65 -20 95 -23 225 -22 137 0
158 3 235 28 47 16 108 40 135 54 61 30 153 100 189 142 l26 32 0 -137 0 -136
133 3 132 3 0 485 c0 466 -1 488 -22 566 -75 282 -302 516 -575 595 -72 20
-291 34 -363 23z m247 -265 c29 -6 82 -25 118 -42 84 -39 209 -161 245 -238
30 -66 55 -206 55 -306 0 -66 -5 -85 -39 -158 -132 -282 -311 -405 -568 -392
-92 4 -108 8 -160 37 -169 96 -258 204 -309 375 -38 127 -15 327 49 435 65
110 168 209 263 251 103 46 236 61 346 38z"/>
<path d="M2607 2885 c-514 -97 -824 -618 -658 -1103 85 -245 281 -430 551
-517 73 -24 106 -28 237 -33 93 -3 177 0 220 7 101 18 239 67 316 112 120 71
290 250 256 270 -8 5 -54 35 -104 67 l-89 58 -76 -76 c-84 -85 -177 -143 -279
-173 -51 -15 -97 -20 -196 -20 -114 0 -140 3 -210 26 -259 86 -419 325 -402
601 20 333 302 565 660 543 200 -12 375 -106 479 -256 l17 -24 103 63 c57 35
105 65 106 66 2 1 -13 28 -33 60 -97 151 -259 259 -474 316 -102 27 -316 33
-424 13z"/>
<path d="M6191 2889 c-130 -23 -273 -90 -372 -176 -200 -171 -301 -387 -301
-648 -1 -248 72 -426 246 -601 103 -103 179 -151 311 -197 86 -31 96 -32 245
-32 147 1 160 3 250 33 117 39 205 90 281 163 l59 57 0 -134 0 -135 133 3 132
3 0 490 -1 490 -27 88 c-47 153 -113 262 -223 371 -104 104 -223 173 -359 211
-72 19 -296 28 -374 14z m284 -264 c102 -26 165 -63 246 -144 92 -93 123 -153
144 -281 24 -152 20 -212 -19 -301 -45 -105 -115 -207 -187 -273 -112 -104
-221 -142 -385 -133 -113 5 -152 21 -261 101 -204 150 -284 434 -192 682 46
122 172 258 289 312 112 52 251 66 365 37z"/>
<path d="M3813 2358 c4 -469 6 -510 26 -603 33 -152 84 -251 179 -344 132
-131 269 -181 497 -181 233 0 366 49 500 184 92 93 123 146 159 268 39 134 46
252 46 734 l0 444 -135 0 -135 0 0 -468 c0 -507 -7 -605 -46 -689 -75 -158
-264 -245 -461 -215 -200 31 -325 154 -353 347 -5 39 -10 281 -10 548 l0 477
-136 0 -136 0 5 -502z"/>
<path d="M11350 809 c0 -155 -1 -161 -18 -146 -10 9 -44 29 -77 44 -53 25 -71
28 -160 28 -93 0 -105 -2 -167 -33 -75 -37 -142 -104 -179 -179 -19 -40 -24
-64 -24 -138 0 -80 3 -96 29 -148 36 -71 108 -140 184 -175 51 -24 68 -27 167
-27 92 0 118 4 158 23 88 40 145 89 180 156 l32 61 0 345 0 345 -62 3 -63 3 0
-162z m-120 -227 c79 -39 113 -91 118 -181 3 -54 0 -76 -16 -107 -93 -180
-364 -180 -448 0 -32 68 -31 119 4 186 65 129 203 170 342 102z"/>
<path d="M15293 935 c-30 -30 -34 -40 -29 -67 7 -38 21 -55 59 -74 38 -20 80
-10 112 28 41 48 30 104 -25 133 -47 24 -78 19 -117 -20z"/>
<path d="M16180 808 c0 -154 -1 -160 -18 -145 -10 9 -44 29 -77 44 -53 25 -71
28 -160 28 -87 0 -107 -3 -156 -26 -147 -69 -230 -207 -215 -358 11 -123 92
-232 214 -289 50 -24 69 -27 157 -27 120 0 165 12 247 68 55 37 68 54 103 121
l40 78 3 320 c2 236 0 323 -9 334 -7 9 -31 14 -70 14 l-59 0 0 -162z m-120
-226 c75 -38 112 -92 118 -172 6 -81 -16 -138 -73 -188 -76 -67 -187 -82 -280
-38 -60 28 -87 56 -114 116 -36 79 -23 161 37 230 77 91 194 111 312 52z"/>
<path d="M18020 612 c0 -378 5 -419 54 -490 15 -22 50 -52 78 -67 45 -25 58
-27 122 -23 39 3 83 11 97 18 l27 12 -22 59 c-16 45 -25 58 -36 53 -56 -24
-89 -27 -114 -11 -54 36 -61 59 -64 219 l-4 148 86 0 86 0 0 60 0 60 -85 0
-85 0 0 155 0 155 -70 0 -70 0 0 -348z"/>
<path d="M11845 727 c-71 -24 -120 -54 -164 -102 -167 -181 -114 -453 109
-563 50 -25 65 -27 170 -27 103 0 121 3 171 26 31 15 76 44 99 65 40 37 90
104 90 122 0 4 -26 20 -57 36 -52 25 -57 26 -66 10 -23 -41 -86 -99 -127 -117
-67 -30 -164 -28 -226 4 -54 28 -100 85 -110 137 l-6 32 306 0 306 0 0 39 c0
21 -9 69 -20 105 -16 51 -33 79 -75 124 -76 83 -149 115 -270 119 -56 2 -105
-2 -130 -10z m248 -150 c38 -23 87 -79 87 -101 0 -3 -99 -6 -221 -6 l-220 0
18 30 c48 81 112 112 219 107 55 -3 82 -10 117 -30z"/>
<path d="M13019 721 c-104 -33 -185 -106 -231 -208 -17 -36 -22 -68 -23 -128
0 -71 4 -88 32 -146 39 -79 102 -140 181 -177 51 -24 69 -27 167 -27 98 0 116
3 167 27 79 37 142 98 181 177 28 58 32 75 32 146 -1 89 -21 147 -76 216 -93
118 -277 169 -430 120z m203 -123 c49 -14 120 -76 143 -123 23 -51 22 -143 -4
-193 -83 -162 -349 -164 -430 -4 -49 97 -31 193 48 264 72 65 153 83 243 56z"/>
<path d="M13869 717 c-166 -57 -259 -177 -259 -335 0 -95 22 -152 85 -221 94
-101 192 -137 352 -129 82 5 103 10 167 42 67 32 146 101 146 125 0 5 -24 23
-52 40 l-53 30 -35 -34 c-106 -103 -306 -107 -404 -9 -91 91 -88 238 7 321 57
50 114 66 210 61 92 -5 155 -32 197 -85 l21 -27 54 30 c30 16 55 33 55 38 0 4
-14 26 -31 47 -89 112 -299 161 -460 106z"/>
<path d="M14706 720 c-303 -97 -360 -462 -99 -628 76 -48 151 -65 262 -59 131
6 197 32 275 109 l61 58 -59 35 -58 35 -48 -43 c-57 -51 -118 -72 -205 -70
-252 4 -348 289 -140 418 45 28 55 30 149 30 113 0 143 -11 207 -72 l37 -35
38 20 c81 42 80 42 33 95 -97 110 -296 157 -453 107z"/>
<path d="M16675 727 c-109 -37 -186 -104 -233 -205 -23 -48 -27 -70 -27 -142
1 -71 5 -94 28 -141 35 -72 108 -146 177 -178 49 -23 67 -26 170 -26 103 0
121 3 171 26 31 15 76 44 99 65 40 37 90 104 90 122 0 4 -26 20 -57 36 -52 25
-57 26 -66 10 -23 -41 -85 -98 -127 -117 -68 -29 -164 -28 -226 4 -54 28 -100
85 -110 137 l-6 32 306 0 306 0 0 39 c0 21 -9 69 -20 105 -16 51 -33 79 -75
124 -76 83 -149 115 -270 119 -56 2 -105 -2 -130 -10z m238 -146 c42 -20 97
-79 97 -103 0 -5 -99 -8 -220 -8 l-221 0 15 28 c21 40 69 82 112 98 57 21 158
14 217 -15z"/>
<path d="M18699 721 c-78 -25 -143 -75 -188 -142 -50 -74 -65 -131 -59 -222 8
-126 80 -232 196 -289 64 -32 72 -33 182 -33 103 0 121 3 171 26 69 33 132 88
166 146 14 24 24 45 22 47 -2 2 -29 16 -59 31 l-54 27 -16 -23 c-35 -54 -73
-88 -122 -109 -102 -44 -226 -24 -288 47 -30 34 -38 50 -54 101 l-7 22 305 0
306 0 0 55 c0 121 -78 238 -197 297 -57 28 -78 33 -157 35 -68 2 -105 -2 -147
-16z m212 -122 c46 -14 104 -61 124 -100 l16 -29 -221 0 c-121 0 -220 3 -220
6 0 9 42 67 60 82 56 48 159 65 241 41z"/>
<path d="M17540 719 c-130 -23 -214 -96 -245 -215 -11 -43 -15 -112 -15 -266
l0 -208 70 0 70 0 0 173 c1 238 10 304 49 339 75 67 244 65 293 -5 22 -31 23
-40 26 -269 l3 -238 71 0 70 0 -5 243 c-5 277 -9 300 -77 368 -71 71 -185 100
-310 78z"/>
<path d="M15290 370 l0 -340 70 0 70 0 0 340 0 340 -70 0 -70 0 0 -340z"/>
</g>
</svg>
