<?xml version="1.0" standalone="no"?>
<!DOCTYPE svg PUBLIC "-//W3C//DTD SVG 20010904//EN"
 "http://www.w3.org/TR/2001/REC-SVG-20010904/DTD/svg10.dtd">
<svg version="1.0" xmlns="http://www.w3.org/2000/svg"
 width="629.000000pt" height="115.000000pt" viewBox="0 0 629.000000 115.000000"
 preserveAspectRatio="xMidYMid meet">
<metadata>
Created by potrace 1.16, written by Peter Selinger 2001-2019
</metadata>
<g transform="translate(0.000000,115.000000) scale(0.100000,-0.100000)"
fill="#000000" stroke="none">
<path d="M0 575 l0 -575 3145 0 3145 0 0 575 0 575 -3145 0 -3145 0 0 -575z
m715 484 c78 -14 167 -60 220 -114 79 -79 128 -206 123 -320 l-3 -66 -267 1
c-180 0 -268 -3 -268 -10 0 -6 15 -27 34 -48 33 -36 37 -37 104 -37 60 0 75 4
120 32 l51 32 87 -84 88 -84 -20 -22 c-39 -45 -134 -98 -204 -113 -81 -19
-217 -21 -292 -5 -226 48 -358 268 -307 511 50 237 275 375 534 327z m1854 0
c263 -45 411 -258 361 -520 -30 -156 -162 -285 -328 -320 -85 -17 -264 -7
-333 20 -171 66 -269 209 -269 395 0 179 81 311 235 382 110 51 211 64 334 43z
m2755 -20 c49 -24 99 -73 118 -115 15 -33 24 -30 53 16 14 22 47 55 73 74 146
107 347 55 429 -112 l28 -57 3 -313 3 -312 -170 0 -170 0 -3 244 c-3 241 -3
245 -26 269 -46 49 -112 43 -149 -13 -22 -32 -23 -41 -23 -266 l0 -234 -175 0
-175 0 0 244 c0 244 0 245 -24 273 -50 58 -143 26 -166 -56 -5 -20 -10 -132
-10 -248 l0 -213 -170 0 -170 0 0 415 0 415 170 0 170 0 0 -50 c0 -27 3 -50 6
-50 3 0 29 20 56 45 28 25 71 52 97 60 65 21 166 14 225 -16z m-3922 -1 c4 -7
33 -116 63 -243 62 -253 64 -260 70 -254 2 2 31 112 65 244 33 132 64 246 68
253 10 19 338 19 335 0 0 -7 -26 -80 -57 -163 -30 -82 -83 -224 -117 -315 -33
-91 -75 -204 -92 -253 l-32 -87 -176 0 -176 0 -98 268 c-175 476 -204 556
-200 561 2 4 79 5 171 4 130 -1 170 -4 176 -15z m1998 -403 l0 -415 -170 0
-170 0 0 413 c0 228 2 416 4 418 2 2 79 3 170 1 l166 -3 0 -414z m2750 403
c11 -12 20 -32 20 -45 0 -30 -42 -73 -70 -73 -29 0 -70 44 -70 75 0 58 79 87
120 43z m-2258 -227 c3 -224 4 -241 24 -267 27 -37 67 -47 111 -29 57 24 63
53 63 310 l0 225 170 0 170 0 0 -415 0 -415 -170 0 -170 0 0 50 c0 28 -3 50
-6 50 -3 0 -16 -13 -30 -29 -40 -47 -125 -84 -197 -85 -96 -2 -154 20 -213 79
-84 84 -87 100 -92 458 l-3 307 170 0 169 0 4 -239z"/>
<path d="M583 825 c-32 -14 -56 -42 -68 -82 -6 -23 -6 -23 99 -23 89 0 106 2
106 15 0 32 -32 77 -65 91 -40 16 -32 17 -72 -1z"/>
<path d="M2408 774 c-42 -22 -62 -69 -62 -144 0 -45 5 -74 18 -96 52 -87 164
-84 211 6 20 38 19 143 0 184 -29 60 -107 83 -167 50z"/>
</g>
</svg>
