<?xml version="1.0" encoding="utf-8"?>
<!-- Generator: Adobe Illustrator 23.0.4, SVG Export Plug-In . SVG Version: 6.00 Build 0)  -->
<svg version="1.1" id="Capa_1" xmlns="http://www.w3.org/2000/svg" xmlns:xlink="http://www.w3.org/1999/xlink" x="0px" y="0px"
	 viewBox="0 0 1200 574.46" style="enable-background:new 0 0 1200 574.46;" xml:space="preserve">
<style type="text/css">
	.st0{fill:none;stroke:#BACC5E;stroke-width:3.7865;stroke-miterlimit:10;}
	.st1{fill:#080A00;}
	.st2{fill:#BACC5E;stroke:#BACC5E;stroke-miterlimit:10;}
	.st3{fill:#4A72B2;}
	.st4{fill:#3D689E;}
	.st5{fill:#BACC5D;}
	.st6{fill:#BACC5E;}
</style>
<line id="XMLID_220_" class="st0" x1="754.61" y1="111.13" x2="724.98" y2="108.53"/>
<line id="XMLID_219_" class="st0" x1="749.81" y1="47.24" x2="721.12" y2="55.1"/>
<line id="XMLID_212_" class="st0" x1="673.24" y1="0" x2="671.55" y2="29.7"/>
<path id="XMLID_210_" class="st1" d="M646.83,119.6c-0.34-0.64-0.68-1.27-1.02-1.91C646.14,118.33,646.47,118.96,646.83,119.6z"/>
<path id="XMLID_208_" class="st1" d="M667.38,153.9c-6.57-8.68-10.54-14.34-15.98-23.54c-2.25-3.81-2.6-7.2-4.58-10.75
	c8.12,15.07,17.81,29.65,27.71,43.76c1.06-0.23-4.43-0.68-3.57-1.33l-3.58-6.75C666.84,155.26,667.98,155.09,667.38,153.9z"/>
<path id="XMLID_207_" class="st2" d="M673.03,47.92c22.75,0,35.93,13.81,35.93,37.19c0,15.42-10.11,30.2-20.72,45.74
	c-0.92,1.34-1.74,2.6-2.52,3.82l4.66,8.83c1.71-2.58,5.51-7.22,7.22-9.74c11.25-16.3,21.74-31.59,21.74-48.65
	c0-26.41-21.07-47.57-46.72-47.57c-25.91,0-47.15,21.67-47.15,47.57c0,7.33,2.02,14.33,5.22,21.22c4.95,0.98,11.48,4.23,13.8,8.86
	c0.43,0.84,0.9,1.66,1.34,2.5c-5.76-10.88-8.89-21.53-8.89-32.58C636.92,62.12,650.03,47.92,673.03,47.92z"/>
<path id="XMLID_206_" class="st3" d="M689.76,211.3c14.19,22.59,24.71,44.81,24.71,67.81c0,50.74-34.31,85.05-85.05,85.05
	c-50.18,0-82.26-33.48-82.26-85.05c0-34.01,22.3-66.63,45.72-100.92c12.54-18.4,21.49-31.81,31.8-52.16
	c1.39-2.79,3.9-3.07,5.02-3.07c1.11,0,3.62,0.28,5.02,3.07c9.4,18.3,17.05,29.9,28.94,46.84l12.02-7.87
	c-0.38-0.54-0.76-1.09-1.14-1.64c-9.89-14.11-19.59-28.7-27.71-43.76c-0.35-0.64-0.68-1.27-1.02-1.91c-0.44-0.83-0.91-1.66-1.34-2.5
	c-2.32-4.64-6.76-7.89-11.72-8.86c-1-0.2-2.02-0.34-3.06-0.34c-6.13,0-11.99,3.35-14.78,9.2c-10.04,19.79-22.86,38.47-35.13,56.59
	c-24.81,35.96-47.95,69.69-47.95,107.33c0,58.26,40.98,100.36,97.57,100.36c57.15,0,100.36-43.21,100.36-100.36
	c0-26.38-11.83-50.81-27.5-75.35L689.76,211.3z"/>
<g id="XMLID_107_">
	<path id="XMLID_108_" class="st4" d="M97.15,393.82v21.96h-73.8v36.61h66.28v20.77H23.35v37h76.18v21.96H0V393.82H97.15z"/>
	<path id="XMLID_110_" class="st4" d="M148.39,475.14v56.98h-22.16V426.86h22.16v19.19c3.56-6.46,8.47-11.54,14.74-15.24
		c6.26-3.69,13.03-5.54,20.28-5.54c11.87,0,21.47,3.63,28.79,10.88c7.32,7.26,10.98,17.74,10.98,31.46v64.5h-22.16v-57.78
		c0-19.39-8.05-29.09-24.14-29.09c-7.65,0-14.31,2.54-19.98,7.62C151.23,457.96,148.39,465.38,148.39,475.14z"/>
	<path id="XMLID_112_" class="st4" d="M252.27,483.45v-20.78h65.69v20.78H252.27z"/>
	<path id="XMLID_114_" class="st5" d="M414.52,510.95c8.05,0,14.97-1.35,20.78-4.06c5.8-2.7,11.87-7.02,18.2-12.96l15.04,15.44
		c-14.64,16.22-32.42,24.34-53.32,24.34c-20.91,0-38.26-6.73-52.04-20.18c-13.79-13.45-20.68-30.47-20.68-51.05
		c0-20.58,7.02-37.73,21.07-51.45c14.05-13.72,31.79-20.58,53.22-20.58c21.43,0,39.34,7.91,53.72,23.74l-14.84,16.22
		c-6.6-6.33-12.83-10.75-18.7-13.26c-5.87-2.5-12.76-3.76-20.68-3.76c-13.98,0-25.72,4.52-35.22,13.55
		c-9.5,9.04-14.25,20.58-14.25,34.63c0,14.05,4.71,25.79,14.15,35.22C390.41,506.24,401.59,510.95,414.52,510.95z"/>
	<path id="XMLID_116_" class="st6" d="M578.94,517.97c-10.55,10.49-23.74,15.73-39.57,15.73c-15.83,0-29.02-5.24-39.57-15.73
		c-10.55-10.49-15.83-23.31-15.83-38.48c0-15.17,5.27-28,15.83-38.49c10.55-10.49,23.74-15.73,39.57-15.73
		c15.83,0,29.02,5.24,39.57,15.73c10.55,10.49,15.83,23.32,15.83,38.49C594.77,494.66,589.49,507.49,578.94,517.97z M515.52,504.32
		c6.26,6.4,14.21,9.6,23.84,9.6c9.63,0,17.58-3.2,23.85-9.6c6.26-6.4,9.4-14.67,9.4-24.83s-3.14-18.43-9.4-24.83
		c-6.27-6.4-14.22-9.6-23.85-9.6c-9.63,0-17.58,3.2-23.84,9.6c-6.27,6.4-9.4,14.67-9.4,24.83S509.26,497.93,515.52,504.32z"/>
	<path id="XMLID_119_" class="st4" d="M618.12,483.45v-20.78h65.69v20.78H618.12z"/>
	<path id="XMLID_121_" class="st4" d="M734.46,500.66l-13.85,31.46h-24.93l60.94-138.31h24.93l60.94,138.31h-24.93l-13.85-31.46
		H734.46z M794.21,479.09l-25.13-56.98l-25.13,56.98H794.21z"/>
	<path id="XMLID_124_" class="st4" d="M955.86,426.86v91.81c0,18.6-5.05,32.55-15.14,41.85c-10.09,9.3-23.05,13.95-38.88,13.95
		c-15.83,0-30.14-4.95-42.94-14.84l10.49-16.82c10.29,7.78,20.67,11.67,31.16,11.67s18.8-2.71,24.93-8.11
		c6.13-5.41,9.2-14.05,9.2-25.92v-13.45c-3.3,6.2-8.01,11.15-14.15,14.84c-6.13,3.7-13.03,5.54-20.67,5.54
		c-13.98,0-25.46-4.88-34.43-14.64c-8.97-9.76-13.46-21.9-13.46-36.41c0-14.51,4.48-26.64,13.46-36.41
		c8.97-9.76,20.41-14.64,34.33-14.64c13.91,0,25.23,5.74,33.93,17.21v-15.63H955.86z M873.75,475.43c0,8.64,2.67,16.1,8.01,22.36
		c5.34,6.27,12.53,9.4,21.57,9.4s16.36-3.03,21.96-9.1c5.61-6.07,8.41-13.62,8.41-22.66c0-9.03-2.84-16.69-8.51-22.95
		c-5.67-6.26-13-9.4-21.96-9.4c-8.97,0-16.13,3.23-21.47,9.69C876.42,459.24,873.75,466.8,873.75,475.43z"/>
	<path id="XMLID_127_" class="st4" d="M1061.52,483.84v-56.98h22.16v105.26h-22.16v-19.19c-3.56,6.47-8.48,11.54-14.74,15.24
		c-6.27,3.69-13.03,5.54-20.28,5.54c-11.87,0-21.47-3.62-28.79-10.88c-7.32-7.25-10.98-17.74-10.98-31.46v-64.5h22.16v57.78
		c0,19.39,8.05,29.09,24.14,29.09c7.65,0,14.31-2.54,19.98-7.62C1058.69,501.03,1061.52,493.61,1061.52,483.84z"/>
	<path id="XMLID_129_" class="st4" d="M1201.02,532.12h-20.18v-14.05c-8.71,10.42-20.38,15.63-35.02,15.63
		c-10.95,0-20.02-3.1-27.21-9.3c-7.19-6.2-10.78-14.48-10.78-24.83c0-10.35,3.82-18.1,11.48-23.25c7.65-5.15,18.01-7.72,31.06-7.72
		h28.69v-3.96c0-13.98-7.78-20.97-23.35-20.97c-9.77,0-19.92,3.56-30.47,10.68l-9.89-13.85c12.79-10.16,27.3-15.24,43.53-15.24
		c12.4,0,22.52,3.13,30.37,9.4c7.85,6.27,11.77,16.13,11.77,29.58V532.12z M1178.85,492.95v-8.91h-24.93
		c-15.96,0-23.94,5.01-23.94,15.04c0,5.15,1.98,9.07,5.94,11.77c3.96,2.71,9.46,4.06,16.52,4.06c7.05,0,13.22-1.98,18.5-5.94
		C1176.21,505.01,1178.85,499.67,1178.85,492.95z"/>
</g>
</svg>
