<?xml version="1.0" encoding="utf-8"?>
<!-- Generator: Adobe Illustrator 23.0.1, SVG Export Plug-In . SVG Version: 6.00 Build 0)  -->
<svg version="1.1" id="Capa_1" xmlns="http://www.w3.org/2000/svg" xmlns:xlink="http://www.w3.org/1999/xlink" x="0px" y="0px"
	 viewBox="0 0 1366 768" style="enable-background:new 0 0 1366 768;" xml:space="preserve">
<style type="text/css">
	.st0{fill:#1D713B;stroke:#1D713B;stroke-width:0.0938;stroke-miterlimit:10.43;}
	.st1{fill:#F7F7F7;stroke:#F7F7F7;stroke-width:0.0938;stroke-miterlimit:10.43;}
	.st2{fill:#444243;stroke:#444243;stroke-width:0.0938;stroke-miterlimit:10.43;}
	.st3{fill:#FEFEFE;stroke:#FEFEFE;stroke-width:0.0938;stroke-miterlimit:10.43;}
</style>
<path class="st0" d="M595.79,103.12c56.39-9.89,109.41,44.33,103.25,97.65c-0.35,50.29-51.62,96.83-104.37,86.61
	c-41.76-5.63-72.32-43.24-76.24-82.42C512.67,158.73,547.14,110.21,595.79,103.12z"/>
<path class="st0" d="M953.99,101.99c29.98,0.34,61.06-2.74,89.77,7.6c53.07,18.63,90.22,70.43,92.14,124.48
	c2.22,51.33-26.21,103.71-73.57,128.26c-32.45,19.11-71.94,16.15-108.37,15.88C954.42,286.14,954.37,194.05,953.99,101.99z"/>
<path class="st0" d="M733.49,104.42c33.9,1.06,67.9-1.2,101.75,1.23c42.84,4.09,76.19,42.33,79.06,82.75
	c4.24,35.18-16.73,69.06-46.26,88.43c15.65,33.5,31.2,67.02,46.26,100.78c-16.25,0.26-32.5,0.89-48.73,0.87
	c-21.12-44.33-41.04-89.18-60.99-134.01c17.72-2.21,37.77-3.13,51.17-16.12c23.89-20.86,14.73-64.08-15.18-74.86
	c-20.12-5.85-41.44-2.65-62.08-3.08c0.02,75.75-0.2,151.5-0.22,227.26c-15.03,0.29-30.03,0.48-45.03,0.67
	C733.27,287.03,733.19,195.74,733.49,104.42z"/>
<path class="st0" d="M1168.53,105.31c15.1-0.55,30.23-0.58,45.33,0.34c-0.5,90.84-0.15,181.66-0.12,272.5
	c-15.03,0.07-30.06,0.05-45.08,0.05C1168.5,287.23,1168.48,196.27,1168.53,105.31z"/>
<path class="st0" d="M202.95,107.9c22.69,1.03,49.25-5.68,68.22,9.99c34.52,28.95,45.66,73.47,67.43,110.57
	c4.19,7.12,14.93,19.03,22.89,9.48c26.14-31.64,34.02-73.59,60.56-105.04c8.89-10.23,19.3-20.6,33.3-23.63
	c16.55-3.63,33.63-0.94,50.4-1.2c0.1,90,0.12,180-0.1,269.99c-16.75,0.1-33.53,0.19-50.28,0.31c-0.22-68.08,0.95-136.18-0.75-204.23
	c-22.49,26.93-29.61,63.38-55.84,87.66c-26.74,23.75-75.49,21.75-97.71-6.95c-20.17-24.26-26.49-56.33-47.11-80.32
	c-1.77,67.91-0.7,135.86-0.85,203.8c-16.75-0.17-33.5-0.19-50.25-0.26C202.85,288.02,202.77,197.95,202.95,107.9z"/>
<path class="st1" d="M999.65,147.9c40.72,3.32,79.61,31.31,88.05,70.87c16.23,53.54-30.13,114.18-88.12,114.74
	C999.28,271.63,998.95,209.77,999.65,147.9z"/>
<path class="st1" d="M598.09,150.81c32.95-9.53,65.23,26.57,54.64,57.01c-6.59,28.59-47.18,44.59-71,24.69
	C550.91,212.22,560.67,157.84,598.09,150.81z"/>
<path class="st0" d="M531.36,332.95c51.37-0.96,102.77-0.6,154.15-0.22c0.17,14.87,0.25,29.74,0.45,44.64
	c-51.57,1.44-103.17,0.91-154.77,0.46C530.91,362.86,531.06,347.89,531.36,332.95z"/>
<path class="st2" d="M484.43,464.82c3.87-0.05,7.74-0.1,11.61-0.12c-0.22,35.04,0.22,70.07-0.22,105.11
	c-4.79-1.06-9.54-2.31-13.95-4.33c-12.63,4.33-27.71,6.45-39.42-1.3c-20.32-12.49-19.97-45.46,0.72-57.42
	c12.71-7.7,28.91-5.22,41.34,1.68C484.23,493.91,484.33,479.35,484.43,464.82z"/>
<path class="st2" d="M208.56,474.95c4.27-0.05,8.51-0.1,12.78-0.12c0.15,27.91,0.02,55.8,0.05,83.69
	c14.63,0.05,29.23,0.02,43.86,0.05c0,3.37,0,6.76,0,10.15c-18.9-0.02-37.77,0.02-56.67-0.02
	C208.61,537.44,208.64,506.18,208.56,474.95z"/>
<path class="st2" d="M813.8,478.73c3.84-0.07,7.69-0.14,11.53-0.22c0.1,2.48,0.3,7.41,0.4,9.89c-3.94,0.1-7.89,0.22-11.81,0.36
	C813.87,485.42,813.82,482.07,813.8,478.73z"/>
<path class="st2" d="M525.95,504.59c10.46-5.53,22.64-1.54,31.23,5.29c-2.5,1.88-4.97,3.73-7.46,5.58
	c-7.26-5.85-25.26-5.53-20.52,7.32c9.29,7.6,23.67,9.34,29.78,20.38c4.77,7.92,1.02,18.55-7.19,22.76
	c-12.58,6.57-28.18,3.34-39.29-4.57c2.6-2.26,5.19-4.48,7.81-6.69c8.49,5.75,25.69,9.99,28.96-3.15
	c-1.32-12.2-17.27-13.6-25.54-20.31C513.01,525.53,515.34,509.09,525.95,504.59z"/>
<path class="st2" d="M572.25,534.91c-0.32-31.04,44.06-43.72,64.61-21.85c-2.92,1.78-5.84,3.56-8.76,5.34
	c-9.21-6.28-21.69-9.87-32.08-3.92c-16.55,9.14-15.55,36.62,2.72,43.36c10.41,5.44,22.04,1.23,31.38-4.21
	c2.7,2.21,5.39,4.45,8.06,6.74C615.61,579.75,570.16,567.23,572.25,534.91z"/>
<path class="st2" d="M742.93,505.7c12.23-3.97,26.71-6.04,38.12,1.28c18.7,11.02,21.29,39.56,5.12,53.73
	c-12.13,11.82-32.08,10.42-46.16,2.74c0.25,12.75,0.05,25.53,0.15,38.31c-4.12-0.07-8.21-0.1-12.33-0.12
	c0.07-33.09-0.07-66.15,0.07-99.21C732.92,503.39,737.96,504.43,742.93,505.7z"/>
<path class="st2" d="M945.23,502.48c15.55-3.44,35.4,8.52,32.1,25.31c-4.17,22.69-41.16,25.53-51.3,5.7
	C918.54,520.16,930.6,503.85,945.23,502.48z"/>
<path class="st2" d="M290.22,503.25c14.13-0.1,28.28-0.05,42.41-0.05c0.02,21.83,0.02,43.68,0.02,65.5c-3.4,0-6.79,0.02-10.16,0.05
	c-0.65-0.94-1.92-2.79-2.57-3.73c-15.45,8.95-42.41,4.5-44.66-15.5c-2.67-16.96,15.83-27.53,31.4-26.42
	c0.15,2.89,0.3,5.78,0.47,8.69c-8.99,0.94-20.82,4.38-20.12,15.26c0.67,16.8,29.41,17.73,33.38,2.48
	c1.35-12.22,0.27-24.57,0.5-36.82c-10.23-0.1-20.44-0.1-30.63-0.02C290.24,509.53,290.22,506.38,290.22,503.25z"/>
<path class="st2" d="M353.4,503.32c19.47-0.22,38.94-0.12,58.41-0.07c-0.1,21.83-0.05,43.63-0.02,65.45c-3.92,0-7.81,0-11.73,0.02
	c-0.02-18.7,0.05-37.39-0.05-56.12c-11.46,0.02-22.94,0.02-34.4,0.02c0.17,18.72,0.05,37.42,0.05,56.14
	c-4.12-0.05-8.21-0.1-12.31-0.12C353.45,546.87,353.37,525.1,353.4,503.32z"/>
<path class="st2" d="M664.64,503.29c14.15-0.17,28.31-0.05,42.46-0.14c0,21.87,0,43.72,0,65.57c-3.37,0-6.72,0.02-10.06,0.05
	c-0.67-0.94-2-2.84-2.67-3.8c-15.33,9.14-42.46,4.43-44.63-15.45c-2.8-17.13,15.83-27.5,31.45-26.4c0.1,2.91,0.22,5.82,0.37,8.76
	c-8.94,1.01-20.72,4.28-20.07,15.16c0.55,16.77,29.63,17.83,33.43,2.48c1.22-12.25,0.22-24.57,0.4-36.84
	c-10.21-0.07-20.4-0.05-30.58,0C664.69,509.53,664.67,506.4,664.64,503.29z"/>
<path class="st2" d="M813.82,503.13c3.87,0.02,7.74,0.05,11.63,0.1c0.12,21.83,0.02,43.65,0.05,65.48c-3.87,0-7.71,0-11.56,0.02
	C813.77,546.85,813.97,525,813.82,503.13z"/>
<path class="st2" d="M845.18,503.32c19.47-0.19,38.94-0.17,58.41,0c-0.1,21.78-0.02,43.58-0.05,65.36
	c-3.89,0.02-7.81,0.02-11.71,0.05c-0.02-18.7,0.02-37.39,0-56.09c-11.48,0-22.99,0-34.47,0.02c0.17,18.67,0.15,37.39,0.02,56.09
	c-4.12-0.05-8.19-0.05-12.26-0.07C845.23,546.87,845.15,525.1,845.18,503.32z"/>
<path class="st2" d="M977.41,503.29c6.64-0.05,13.28-0.07,19.95-0.1c-0.1,3.15-0.2,6.3-0.27,9.48c-6.54-0.05-13.06-0.05-19.57-0.05
	C977.46,509.5,977.43,506.4,977.41,503.29z"/>
<path class="st1" d="M455.85,512.03c26.21-8.01,37.4,27.05,22.07,42.86c-10.53,9.22-31.18,6.95-36.22-6.95
	C436.15,535.18,440.05,515.62,455.85,512.03z"/>
<path class="st1" d="M755.38,512.01c20.89-6.59,35.15,16.44,27.78,33.71c-4.54,18.34-35.57,20.02-41.69,2.05
	C737.86,535.08,738.88,515.23,755.38,512.01z"/>
<path class="st3" d="M947.55,511.69c9.39-2.41,20.02,5.73,17.87,15.3c-2.8,11.43-20.79,14.39-27.19,4.31
	C932.27,523.97,938.41,512.78,947.55,511.69z"/>
<path class="st2" d="M919.32,551.88c22.84,0,45.68,0,68.52,0c-0.05,3.22-0.07,6.43-0.07,9.65c-22.84-0.07-45.68,0-68.52-0.05
	C919.24,558.28,919.27,555.08,919.32,551.88z"/>
<path class="st2" d="M919.29,563.04c11.38,8.61,22.74,17.3,34.15,25.89c11.33-8.74,22.79-17.3,34.25-25.89
	c0,4.14,0.02,8.3,0.02,12.46c-11.58,8.42-22.87,17.21-34.22,25.92c-11.48-8.57-22.69-17.45-34.2-25.96
	C919.27,571.3,919.27,567.16,919.29,563.04z"/>
<path class="st2" d="M476.77,574.96c3.84-0.02,7.69-0.07,11.56-0.1c0.12,2.48,0.4,7.41,0.55,9.87c-3.92,0.07-7.84,0.12-11.73,0.22
	C476.99,581.62,476.87,578.28,476.77,574.96z"/>
<path class="st2" d="M204.64,614.42c2.25-18.99,28.78-20.02,40.52-8.35c-2.52,1.9-5.04,3.83-7.56,5.73
	c-6.67-5.78-24.01-5.92-20.74,6.04c7.54,8.93,22.47,9.65,29.13,19.97c6.02,7.87,2.52,19.85-6.29,24.3
	c-12.73,6.86-28.58,3.37-39.69-4.91c4.34-3.01,9.09-7.53,14.35-3.47c7.74,5.32,22.84,3.34,22.89-7.68
	C232.13,630.76,203.99,633.14,204.64,614.42z"/>
<path class="st2" d="M268.6,613c11.38-16.39,37.54-19.44,53.47-7.6c8.34,6.23,10.71,16.75,11.93,26.33
	c-20.1,0.36-40.17-0.19-60.26,0.34c1.15,22.84,29.88,31.31,47.36,18.48c3.52,1.37,7.04,2.74,10.58,4.16
	c-14.65,13.16-38.54,14.7-55.07,4.07C261.68,648.88,258.19,627.13,268.6,613z"/>
<path class="st2" d="M373.45,598.37c6.27-1.54,14.43,4.5,11.53,10.9c-2.6,7.56-14.4,8.23-18.62,1.59
	C362.34,605.85,368,599.31,373.45,598.37z"/>
<path class="st2" d="M520.93,605.64c14.98-11.65,37.79-8.83,51.2,3.83c-2.95,1.71-5.89,3.44-8.84,5.17
	c-9.69-6.47-23.39-10.32-33.7-2.91c-15.15,9.94-13.31,35.83,4.24,42.4c10.28,5.32,21.77,1.16,31.15-3.87
	c2.87,1.85,5.74,3.73,8.64,5.61c-16.63,14.34-46.11,13.38-59.89-4.19C502.66,637.76,506.37,615.96,520.93,605.64z"/>
<path class="st2" d="M601.48,601.88c22.52-11.65,53.57,3.85,52,29.79c-20.07,0.43-40.14-0.07-60.21,0.31
	c1.05,22.84,29.86,31.48,47.31,18.53c3.54,1.4,7.06,2.82,10.61,4.28c-16.28,14.41-44.68,15.21-60.29-0.53
	C575.65,638.94,581.16,610.5,601.48,601.88z"/>
<path class="st2" d="M669.04,614.4c2.15-19.03,29.11-20.09,40.62-8.09c-2.57,1.8-5.12,3.63-7.66,5.46
	c-7.24-6.14-25.04-5.44-20.57,7.27c11.81,8.71,34.6,12.75,31.6,31.45c-6.04,19.68-34.35,18.24-48.18,7.15
	c2.6-2.26,5.24-4.48,7.86-6.67c8.41,5.78,25.49,9.99,28.81-3.18C699.22,630.52,667.86,633.86,669.04,614.4z"/>
<path class="st2" d="M348.38,599.6c4.07-0.1,8.14-0.19,12.23-0.26c0.17,21.87-0.05,43.77,0.15,65.65
	c-4.14-0.02-8.26-0.02-12.38-0.05C348.41,643.15,348.43,621.38,348.38,599.6z"/>
<path class="st2" d="M394.16,599.74c3.99-0.24,7.99-0.46,11.98-0.67c7.99,14.73,15.53,29.69,23.27,44.57
	c7.56-14.75,15.23-29.43,22.87-44.13c4.17-0.02,8.34,0,12.51,0.02c-11.66,22.57-23.62,45-35.45,67.47
	C417.83,644.48,405.65,622.29,394.16,599.74z"/>
<path class="st2" d="M476.94,599.5c3.87,0,7.71,0.02,11.58,0.05c-0.07,21.83,0.05,43.63-0.07,65.43c-3.87-0.02-7.76-0.02-11.63-0.02
	C476.97,643.13,476.74,621.33,476.94,599.5z"/>
<path class="st3" d="M275.76,622.07c8.49-19.06,37.94-18.6,46.56,0.1C306.79,622.48,291.29,622.58,275.76,622.07z"/>
<path class="st1" d="M595.27,622.05c8.49-19.15,37.99-18.55,46.71,0.12C626.4,622.51,610.82,622.63,595.27,622.05z"/>
</svg>
