<?xml version="1.0" encoding="UTF-8" ?>
<!DOCTYPE svg PUBLIC "-//W3C//DTD SVG 1.1//EN" "http://www.w3.org/Graphics/SVG/1.1/DTD/svg11.dtd">
<svg width="1095pt" height="416pt" viewBox="0 0 1095 416" version="1.1" xmlns="http://www.w3.org/2000/svg">
<g id="#000000ff">
<path fill="#000000" opacity="1.00" d=" M 0.00 0.00 L 1095.00 0.00 L 1095.00 416.00 L 0.00 416.00 L 0.00 0.00 M 84.88 105.75 C 84.90 173.67 84.83 241.59 84.91 309.51 C 153.59 309.53 222.26 309.44 290.93 309.56 C 291.09 241.62 290.96 173.68 291.00 105.75 C 222.29 105.75 153.59 105.75 84.88 105.75 M 381.25 139.44 C 380.57 140.67 379.98 141.99 379.00 143.03 C 375.92 144.30 372.86 142.15 369.90 141.41 C 362.18 138.42 352.70 138.66 346.02 143.94 C 338.39 149.79 335.85 161.59 340.99 169.84 C 344.11 175.07 349.52 178.21 354.56 181.32 C 360.44 185.11 366.66 188.48 371.97 193.09 C 377.88 198.26 378.29 208.85 372.00 213.88 C 365.46 219.16 355.57 217.56 349.22 212.76 C 343.64 208.67 340.62 202.28 337.87 196.15 C 337.18 196.07 335.80 195.92 335.11 195.84 C 336.28 204.47 337.49 213.10 338.73 221.73 C 342.33 222.50 341.64 217.11 344.98 217.49 C 350.96 218.83 356.63 221.83 362.91 221.64 C 372.16 222.16 382.01 217.85 386.47 209.44 C 390.26 202.15 389.50 192.34 383.72 186.29 C 377.75 179.93 369.90 175.91 362.62 171.29 C 358.61 168.79 354.42 166.31 351.45 162.56 C 347.73 157.89 348.18 149.91 353.55 146.66 C 359.40 142.70 367.19 144.53 372.70 148.22 C 378.64 151.81 381.41 158.60 383.20 165.00 C 383.93 165.00 385.39 165.00 386.12 165.00 C 385.24 156.51 384.36 148.02 383.49 139.54 C 382.93 139.51 381.81 139.46 381.25 139.44 M 793.19 140.15 C 779.66 142.45 768.03 152.90 764.10 166.01 C 761.28 175.39 761.25 185.65 764.06 195.04 C 767.93 207.74 778.83 218.23 791.95 220.87 C 800.66 222.61 810.04 222.01 818.14 218.18 C 827.80 213.63 835.45 204.87 838.35 194.56 C 840.77 185.91 840.82 176.60 838.66 167.90 C 836.05 157.32 828.52 148.16 818.78 143.34 C 810.91 139.46 801.76 138.70 793.19 140.15 M 941.07 200.86 C 938.98 205.41 937.19 210.17 934.31 214.29 C 932.72 216.59 929.89 217.28 927.36 217.95 C 927.39 218.68 927.42 219.41 927.45 220.15 C 935.34 220.10 943.23 220.14 951.13 220.13 C 951.13 219.56 951.12 218.42 951.12 217.86 C 948.96 217.46 946.63 217.46 944.71 216.31 C 942.74 214.93 942.73 212.18 943.46 210.12 C 945.16 204.77 947.47 199.63 949.44 194.38 C 959.88 194.37 970.32 194.39 980.76 194.37 C 983.10 200.86 986.93 206.98 987.74 213.92 C 987.56 218.05 982.27 217.14 979.49 217.82 C 979.49 218.59 979.51 219.36 979.53 220.13 C 989.73 220.10 999.92 220.15 1010.12 220.11 C 1010.00 219.57 1009.76 218.51 1009.64 217.97 C 1006.00 217.20 1002.56 215.39 1001.27 211.66 C 990.41 187.99 980.39 163.91 969.59 140.22 C 968.96 140.06 967.70 139.75 967.07 139.59 C 958.43 160.03 949.75 180.45 941.07 200.86 M 398.87 141.13 C 398.87 141.70 398.88 142.84 398.88 143.41 C 401.96 143.99 405.61 143.86 408.01 146.19 C 409.78 148.75 409.58 152.04 409.74 155.01 C 409.77 167.67 409.74 180.32 409.75 192.97 C 409.82 200.25 411.45 207.99 416.51 213.50 C 422.12 219.70 430.86 221.76 438.93 221.77 C 447.22 221.97 456.24 220.37 462.40 214.39 C 468.13 208.87 469.85 200.62 470.12 192.96 C 470.44 180.39 470.12 167.82 470.29 155.25 C 470.49 152.49 470.60 149.52 472.13 147.12 C 474.23 144.29 478.06 144.29 481.15 143.32 C 481.26 142.78 481.48 141.71 481.60 141.17 C 472.20 141.09 462.81 141.11 453.42 141.16 C 453.27 142.79 453.96 143.65 455.47 143.72 C 458.53 144.35 462.46 145.07 463.59 148.48 C 465.15 153.11 464.79 158.12 464.88 162.94 C 464.82 172.65 464.97 182.36 464.81 192.06 C 464.56 198.44 463.96 205.53 459.35 210.41 C 454.98 215.09 448.23 216.41 442.08 216.32 C 436.51 216.30 430.50 214.72 426.79 210.30 C 422.68 205.55 422.07 198.96 421.90 192.95 C 421.85 179.97 421.87 167.00 421.89 154.02 C 422.06 151.26 421.92 148.09 423.87 145.87 C 426.39 143.86 429.80 143.91 432.84 143.43 C 432.86 142.86 432.90 141.72 432.92 141.14 C 421.57 141.10 410.22 141.14 398.87 141.13 M 485.49 141.13 C 485.49 141.69 485.50 142.83 485.50 143.40 C 488.18 143.87 491.11 143.99 493.45 145.57 C 495.49 147.36 495.57 150.36 495.73 152.89 C 495.78 170.61 495.73 188.34 495.75 206.07 C 495.63 209.08 495.77 212.40 494.14 215.06 C 491.87 217.30 488.41 217.29 485.47 217.86 C 485.50 218.62 485.52 219.38 485.55 220.14 C 496.69 220.10 507.83 220.15 518.97 220.11 C 518.86 219.56 518.65 218.46 518.54 217.92 C 515.60 217.13 512.20 217.32 509.78 215.24 C 508.16 213.22 508.14 210.47 508.01 208.02 C 507.97 199.91 508.02 191.79 508.00 183.67 C 509.70 183.59 511.40 183.51 513.12 183.42 C 523.03 195.67 532.98 207.89 542.91 220.13 C 549.43 220.11 555.96 220.15 562.49 220.11 C 562.84 217.33 559.98 217.58 558.15 216.88 C 554.80 215.91 552.59 213.02 550.48 210.45 C 542.82 200.97 535.13 191.52 527.44 182.07 C 534.42 180.79 542.04 178.37 546.21 172.19 C 550.83 164.31 549.56 152.67 541.92 147.08 C 535.39 142.24 526.94 141.30 519.05 141.15 C 507.86 141.09 496.68 141.14 485.49 141.13 M 559.05 161.54 C 559.79 161.52 561.28 161.50 562.03 161.49 C 563.19 156.82 564.07 151.17 568.48 148.40 C 574.37 145.49 581.16 146.41 587.51 146.26 C 587.47 166.51 587.53 186.77 587.48 207.02 C 587.24 209.86 587.44 213.15 585.48 215.46 C 582.86 217.35 579.47 217.18 576.46 217.91 C 576.35 218.46 576.14 219.56 576.03 220.11 C 587.76 220.14 599.48 220.13 611.21 220.12 C 611.10 219.56 610.89 218.45 610.79 217.89 C 607.66 217.19 604.11 217.40 601.41 215.44 C 599.63 213.45 599.63 210.57 599.50 208.06 C 599.50 187.45 599.50 166.85 599.50 146.25 C 605.86 146.45 612.71 145.44 618.60 148.41 C 622.74 151.39 623.61 156.87 624.91 161.48 C 625.90 161.49 626.89 161.50 627.89 161.51 C 627.63 154.72 627.45 147.92 627.22 141.13 C 604.73 141.12 582.24 141.13 559.75 141.13 C 559.48 147.93 559.26 154.73 559.05 161.54 M 632.99 141.13 C 633.00 141.70 633.01 142.85 633.02 143.43 C 636.17 143.85 639.66 143.78 642.37 145.70 C 644.46 147.87 644.41 151.16 644.51 153.98 C 644.48 172.00 644.50 190.01 644.50 208.03 C 644.36 210.53 644.39 213.44 642.62 215.42 C 639.84 217.39 636.24 217.34 633.00 217.84 C 633.00 218.41 633.00 219.55 633.00 220.13 C 644.79 220.12 656.58 220.13 668.37 220.12 C 668.37 219.56 668.38 218.42 668.38 217.85 C 665.30 217.40 662.02 217.35 659.25 215.83 C 656.83 214.08 656.98 210.69 656.76 208.02 C 656.73 190.01 656.76 172.00 656.75 154.00 C 656.93 151.04 656.75 147.32 659.40 145.36 C 662.12 143.79 665.36 143.79 668.39 143.41 C 668.38 142.84 668.38 141.70 668.37 141.12 C 656.58 141.13 644.78 141.12 632.99 141.13 M 673.47 141.14 C 673.48 141.71 673.50 142.85 673.51 143.42 C 676.42 143.94 679.78 143.85 682.13 145.91 C 683.93 148.14 683.79 151.24 683.98 153.95 C 684.02 171.63 684.00 189.31 683.99 206.99 C 683.81 209.76 684.00 212.90 682.23 215.23 C 679.77 217.20 676.44 217.25 673.48 217.85 C 673.49 218.61 673.51 219.37 673.54 220.13 C 685.37 220.09 697.20 220.18 709.03 220.09 C 720.28 219.88 732.21 217.54 740.84 209.82 C 749.67 202.36 753.92 190.45 753.38 179.07 C 753.27 169.29 749.86 159.15 742.36 152.56 C 733.07 144.25 720.18 141.49 708.04 141.19 C 696.52 141.05 684.99 141.15 673.47 141.14 M 846.62 141.13 C 846.62 141.69 846.62 142.83 846.62 143.40 C 849.46 143.93 852.69 143.95 855.01 145.92 C 856.63 147.82 856.78 150.50 856.87 152.90 C 856.88 170.94 856.86 188.97 856.88 207.01 C 856.73 209.76 856.86 212.84 855.17 215.18 C 852.96 217.34 849.61 217.10 846.85 217.95 C 846.73 218.49 846.51 219.57 846.40 220.11 C 857.56 220.15 868.73 220.12 879.90 220.12 C 879.88 219.55 879.86 218.41 879.85 217.84 C 876.97 217.35 873.86 217.26 871.36 215.61 C 869.30 213.69 869.33 210.59 869.15 207.99 C 869.07 199.89 869.16 191.78 869.12 183.67 C 870.84 183.60 872.55 183.51 874.29 183.44 C 884.20 195.68 894.14 207.89 904.06 220.12 C 910.58 220.12 917.09 220.15 923.61 220.11 C 923.99 217.27 920.98 217.55 919.15 216.82 C 916.33 215.98 914.30 213.69 912.49 211.49 C 904.54 201.67 896.57 191.86 888.59 182.06 C 895.92 180.72 904.16 178.09 907.99 171.13 C 911.67 163.46 910.53 152.91 903.55 147.46 C 897.21 142.45 888.80 141.36 880.97 141.16 C 869.52 141.08 858.07 141.15 846.62 141.13 M 333.62 241.00 C 333.62 252.38 333.62 263.75 333.62 275.12 C 341.14 274.82 349.89 276.58 356.08 271.20 C 363.83 263.96 363.07 248.87 353.72 243.28 C 347.56 239.96 340.31 241.29 333.62 241.00 M 392.49 241.00 C 392.50 252.37 392.50 263.75 392.49 275.12 C 398.83 275.13 405.16 275.12 411.50 275.13 C 411.50 274.25 411.50 272.50 411.50 271.62 C 406.46 271.62 401.41 271.62 396.37 271.63 C 396.38 267.62 396.37 263.62 396.38 259.62 C 401.38 259.62 406.38 259.62 411.38 259.62 C 411.37 258.45 411.37 257.29 411.38 256.13 C 406.38 256.12 401.37 256.13 396.37 256.12 C 396.38 252.25 396.37 248.37 396.38 244.50 C 401.42 244.50 406.46 244.50 411.50 244.50 C 411.50 243.63 411.50 241.88 411.50 241.00 C 405.17 241.00 398.83 240.99 392.49 241.00 M 443.25 241.01 C 443.25 252.38 443.25 263.75 443.25 275.12 C 444.54 275.12 445.83 275.12 447.12 275.13 C 447.12 270.66 447.12 266.20 447.13 261.75 C 451.46 261.60 456.13 262.39 460.16 260.37 C 467.22 256.56 466.43 244.04 458.51 241.72 C 453.51 240.61 448.33 241.12 443.25 241.01 M 502.32 241.03 C 497.62 252.41 492.84 263.76 488.11 275.12 C 489.17 275.13 491.29 275.13 492.36 275.13 C 493.66 271.97 494.95 268.80 496.24 265.62 C 501.48 265.62 506.72 265.62 511.97 265.62 C 513.28 268.79 514.59 271.96 515.91 275.13 C 517.33 275.12 518.76 275.12 520.20 275.12 C 515.50 263.74 510.79 252.36 506.09 240.99 C 504.83 241.00 503.57 241.01 502.32 241.03 M 549.62 241.00 C 549.62 252.38 549.62 263.75 549.62 275.13 C 550.95 275.12 552.28 275.12 553.63 275.12 C 553.62 264.92 553.62 254.71 553.62 244.50 C 557.39 244.64 561.35 244.01 564.95 245.39 C 569.95 247.82 570.34 255.76 565.82 258.87 C 563.42 260.41 560.42 260.03 557.71 260.20 C 560.96 265.15 564.18 270.13 567.38 275.11 C 568.82 275.11 570.28 275.12 571.74 275.12 C 568.94 270.93 566.18 266.71 563.33 262.55 C 565.14 262.02 567.15 261.82 568.74 260.70 C 575.09 256.15 573.81 244.33 566.16 241.89 C 560.77 240.54 555.12 241.16 549.62 241.00 M 600.00 241.00 C 599.99 242.17 600.00 243.33 600.01 244.51 C 602.79 244.50 605.58 244.50 608.38 244.50 C 608.37 254.71 608.38 264.92 608.37 275.12 C 609.66 275.12 610.95 275.12 612.25 275.13 C 612.25 264.92 612.24 254.71 612.26 244.50 C 615.04 244.50 617.83 244.50 620.62 244.51 C 620.61 243.34 620.62 242.17 620.63 241.01 C 613.75 240.99 606.87 241.00 600.00 241.00 M 658.06 241.00 C 653.29 252.37 648.55 263.74 643.81 275.12 C 645.21 275.12 646.63 275.12 648.06 275.13 C 649.34 271.96 650.64 268.79 651.93 265.62 C 657.18 265.62 662.43 265.62 667.68 265.63 C 668.98 268.80 670.29 271.97 671.62 275.13 C 672.69 275.13 674.83 275.12 675.90 275.12 C 671.19 263.75 666.49 252.38 661.79 241.00 C 660.54 241.00 659.29 241.00 658.06 241.00 M 705.62 241.00 C 705.62 252.37 705.62 263.75 705.62 275.13 C 706.53 275.13 708.34 275.13 709.25 275.12 C 709.25 265.21 709.24 255.29 709.26 245.37 C 713.65 255.27 717.96 265.20 722.30 275.12 C 722.93 275.12 724.20 275.13 724.84 275.13 C 729.18 265.17 733.51 255.21 737.87 245.26 C 737.97 255.24 737.73 265.23 737.75 275.22 C 738.85 274.70 741.82 276.11 741.47 273.96 C 741.57 262.98 741.46 251.99 741.51 241.01 C 739.69 241.00 737.87 241.00 736.07 240.99 C 731.90 250.44 727.78 259.92 723.58 269.35 C 719.42 259.90 715.24 250.45 711.08 241.00 C 709.25 241.00 707.43 241.00 705.62 241.00 M 774.37 241.00 C 774.38 252.38 774.38 263.75 774.37 275.12 C 780.66 275.13 786.96 275.12 793.25 275.13 C 793.25 274.25 793.25 272.50 793.25 271.62 C 788.25 271.62 783.25 271.62 778.25 271.63 C 778.25 267.62 778.25 263.62 778.25 259.62 C 783.21 259.63 788.16 259.62 793.13 259.62 C 793.13 258.75 793.13 257.00 793.13 256.12 C 788.16 256.13 783.21 256.12 778.25 256.13 C 778.25 252.25 778.25 248.37 778.25 244.50 C 783.25 244.51 788.25 244.50 793.25 244.50 C 793.25 243.63 793.25 241.87 793.25 241.00 C 786.96 241.00 780.66 240.99 774.37 241.00 M 825.24 241.01 C 825.26 252.38 825.25 263.75 825.25 275.12 C 826.53 275.12 827.82 275.12 829.13 275.13 C 829.19 265.66 828.90 256.20 829.00 246.73 C 835.69 256.19 842.35 265.66 849.02 275.13 C 850.25 275.12 851.50 275.12 852.75 275.12 C 852.75 263.75 852.74 252.38 852.75 241.01 C 851.49 241.00 850.24 241.00 849.00 241.00 C 848.99 250.38 849.01 259.76 848.99 269.14 C 842.41 259.75 835.82 250.36 829.22 240.98 C 827.88 240.99 826.56 241.00 825.24 241.01 M 882.62 241.00 C 882.62 241.88 882.62 243.63 882.62 244.50 C 885.37 244.50 888.12 244.50 890.87 244.50 C 890.88 254.71 890.87 264.91 890.87 275.12 C 892.20 275.12 893.53 275.12 894.87 275.13 C 894.86 264.92 894.89 254.72 894.86 244.52 C 897.65 244.52 900.45 244.48 903.25 244.50 C 903.25 243.63 903.25 241.88 903.25 241.00 C 896.37 241.00 889.50 241.00 882.62 241.00 M 940.51 241.13 C 935.93 252.51 931.05 263.77 926.40 275.12 C 927.80 275.12 929.22 275.11 930.66 275.11 C 931.92 271.95 933.22 268.80 934.50 265.64 C 939.74 265.61 944.99 265.63 950.25 265.62 C 951.55 268.79 952.87 271.96 954.18 275.13 C 955.60 275.12 957.03 275.12 958.47 275.12 C 953.75 263.71 949.06 252.29 944.30 240.90 C 943.03 240.99 941.76 241.06 940.51 241.13 M 988.25 241.00 C 988.25 252.38 988.25 263.75 988.25 275.12 C 993.87 275.13 999.50 275.12 1005.13 275.13 C 1005.13 274.25 1005.12 272.50 1005.12 271.62 C 1000.83 271.62 996.54 271.62 992.25 271.63 C 992.25 261.42 992.25 251.21 992.25 241.00 C 990.90 241.00 989.57 241.00 988.25 241.00 Z" />
<path fill="#000000" opacity="1.00" d=" M 141.77 128.59 C 138.31 127.34 138.02 121.96 142.08 121.37 C 145.55 121.10 146.45 124.86 145.41 127.48 C 151.77 141.36 158.70 155.49 169.90 166.17 C 175.45 171.41 182.91 175.73 190.82 174.46 C 199.11 173.07 205.66 167.11 210.94 160.95 C 219.42 151.02 225.08 139.16 230.55 127.42 C 230.35 125.66 229.56 123.46 231.32 122.21 C 233.45 120.18 237.21 122.18 237.04 125.01 C 236.87 127.02 234.63 127.82 233.79 129.47 C 228.05 142.94 220.79 155.99 210.84 166.82 C 204.83 173.15 197.09 179.06 187.97 179.15 C 178.88 179.10 171.15 173.20 165.14 166.91 C 154.95 155.83 147.50 142.45 141.77 128.59 Z" />
<path fill="#000000" opacity="1.00" d=" M 795.48 144.59 C 802.96 142.57 811.27 144.89 816.81 150.27 C 823.49 156.25 825.70 165.52 826.34 174.13 C 826.92 183.19 826.64 192.57 823.43 201.17 C 820.04 210.34 810.99 217.63 800.97 217.39 C 792.11 217.51 784.04 211.66 780.12 203.94 C 776.12 195.96 775.48 186.80 775.65 178.02 C 775.98 169.79 777.19 161.11 782.05 154.21 C 785.34 149.70 789.97 145.96 795.48 144.59 Z" />
<path fill="#000000" opacity="1.00" d=" M 508.01 149.96 C 507.98 148.54 508.20 146.42 510.00 146.23 C 515.92 145.47 522.27 145.61 527.79 148.11 C 538.31 152.82 538.47 170.15 528.40 175.44 C 522.15 178.70 514.86 178.67 508.00 179.17 C 508.01 169.44 507.97 159.70 508.01 149.96 Z" />
<path fill="#000000" opacity="1.00" d=" M 698.20 146.16 C 710.87 144.19 725.54 147.89 733.62 158.46 C 739.53 166.25 740.83 176.53 739.98 186.03 C 739.33 194.14 736.14 202.42 729.68 207.66 C 721.49 214.37 710.32 216.10 700.03 215.37 C 697.66 215.46 695.96 213.42 696.20 211.13 C 696.02 191.41 696.18 171.68 696.12 151.96 C 696.26 149.99 695.84 146.98 698.20 146.16 Z" />
<path fill="#000000" opacity="1.00" d=" M 869.15 149.89 C 869.00 148.12 869.79 145.94 871.93 146.08 C 877.85 145.57 884.19 145.66 889.60 148.44 C 899.57 153.59 899.38 170.44 889.42 175.53 C 883.18 178.70 875.95 178.69 869.13 179.18 C 869.15 169.41 869.08 159.65 869.15 149.89 Z" />
<path fill="#000000" opacity="1.00" d=" M 951.55 189.38 C 956.08 178.53 960.60 167.69 965.15 156.85 C 969.64 167.70 974.17 178.53 978.67 189.37 C 969.63 189.38 960.59 189.37 951.55 189.38 Z" />
<path fill="#000000" opacity="1.00" d=" M 117.18 206.21 C 126.07 198.63 139.46 197.24 149.98 202.05 C 152.82 203.22 155.78 204.92 158.97 204.26 C 160.86 204.00 161.90 202.24 163.08 200.96 C 162.65 209.38 162.95 217.82 162.91 226.25 C 160.06 218.71 157.31 210.35 150.55 205.36 C 142.41 199.24 130.43 199.76 122.10 205.18 C 115.57 209.38 113.31 218.45 116.47 225.41 C 118.88 230.39 123.96 233.32 128.97 235.16 C 138.13 238.47 147.60 240.86 156.75 244.22 C 163.52 246.77 169.57 252.24 171.34 259.44 C 172.92 266.71 171.70 274.61 167.83 280.98 C 165.37 285.08 161.85 288.38 158.21 291.42 C 161.15 287.16 163.38 282.24 163.27 276.96 C 163.34 268.72 158.84 260.34 151.26 256.74 C 141.34 252.02 130.06 250.88 120.31 245.73 C 115.46 243.17 110.90 239.28 109.27 233.86 C 106.38 224.17 109.41 212.80 117.18 206.21 Z" />
<path fill="#000000" opacity="1.00" d=" M 171.59 200.85 C 172.17 198.82 174.38 199.48 175.96 199.34 C 190.63 199.48 205.30 199.21 219.96 199.51 C 233.83 199.72 248.30 204.77 257.52 215.49 C 265.60 224.91 268.38 237.83 267.55 249.98 C 267.02 260.26 263.20 270.51 256.10 278.06 C 248.27 286.45 237.13 291.55 225.72 292.45 C 230.48 290.68 235.28 288.60 238.95 284.98 C 248.32 275.99 252.49 262.78 252.72 250.03 C 252.95 238.94 252.29 227.22 246.86 217.28 C 242.83 209.78 235.34 204.50 227.12 202.56 C 218.08 200.26 208.69 201.46 199.49 201.00 C 199.52 230.79 199.48 260.58 199.51 290.38 C 204.33 290.37 209.14 290.38 213.97 290.37 C 213.98 290.80 214.01 291.68 214.02 292.12 C 200.05 292.13 186.08 292.13 172.12 292.12 C 172.12 291.68 172.13 290.81 172.13 290.37 C 176.96 290.38 181.78 290.37 186.61 290.38 C 186.65 260.59 186.61 230.80 186.63 201.01 C 181.62 200.97 176.60 201.11 171.59 200.85 Z" />
<path fill="#000000" opacity="1.00" d=" M 447.13 244.49 C 450.62 244.62 454.29 244.05 457.62 245.38 C 462.47 247.41 462.40 255.70 457.43 257.54 C 454.13 258.73 450.55 258.11 447.12 258.25 C 447.12 253.66 447.12 249.08 447.13 244.49 Z" />
<path fill="#000000" opacity="1.00" d=" M 337.50 244.50 C 343.23 244.49 350.21 243.71 354.30 248.66 C 358.56 254.25 358.51 263.39 353.42 268.46 C 349.13 272.48 342.87 271.55 337.50 271.62 C 337.50 262.58 337.50 253.54 337.50 244.50 Z" />
<path fill="#000000" opacity="1.00" d=" M 497.45 262.37 C 499.65 256.79 501.86 251.20 504.08 245.63 C 506.36 251.19 508.52 256.80 510.77 262.38 C 506.33 262.37 501.89 262.38 497.45 262.37 Z" />
<path fill="#000000" opacity="1.00" d=" M 653.13 262.37 C 655.36 256.79 657.56 251.18 659.79 245.60 C 661.99 251.20 664.24 256.78 666.47 262.38 C 662.02 262.37 657.57 262.38 653.13 262.37 Z" />
<path fill="#000000" opacity="1.00" d=" M 935.72 262.37 C 937.93 256.78 940.14 251.20 942.36 245.61 C 944.62 251.18 946.79 256.79 949.05 262.37 C 944.60 262.38 940.16 262.38 935.72 262.37 Z" />
</g>
<g id="#00bfb3ff">
<path fill="#00bfb3" opacity="1.00" d=" M 84.88 105.75 C 153.59 105.75 222.29 105.75 291.00 105.75 C 290.96 173.68 291.09 241.62 290.93 309.56 C 222.26 309.44 153.59 309.53 84.91 309.51 C 84.83 241.59 84.90 173.67 84.88 105.75 M 141.77 128.59 C 147.50 142.45 154.95 155.83 165.14 166.91 C 171.15 173.20 178.88 179.10 187.97 179.15 C 197.09 179.06 204.83 173.15 210.84 166.82 C 220.79 155.99 228.05 142.94 233.79 129.47 C 234.63 127.82 236.87 127.02 237.04 125.01 C 237.21 122.18 233.45 120.18 231.32 122.21 C 229.56 123.46 230.35 125.66 230.55 127.42 C 225.08 139.16 219.42 151.02 210.94 160.95 C 205.66 167.11 199.11 173.07 190.82 174.46 C 182.91 175.73 175.45 171.41 169.90 166.17 C 158.70 155.49 151.77 141.36 145.41 127.48 C 146.45 124.86 145.55 121.10 142.08 121.37 C 138.02 121.96 138.31 127.34 141.77 128.59 M 117.18 206.21 C 109.41 212.80 106.38 224.17 109.27 233.86 C 110.90 239.28 115.46 243.17 120.31 245.73 C 130.06 250.88 141.34 252.02 151.26 256.74 C 158.84 260.34 163.34 268.72 163.27 276.96 C 163.38 282.24 161.15 287.16 158.21 291.42 C 161.85 288.38 165.37 285.08 167.83 280.98 C 171.70 274.61 172.92 266.71 171.34 259.44 C 169.57 252.24 163.52 246.77 156.75 244.22 C 147.60 240.86 138.13 238.47 128.97 235.16 C 123.96 233.32 118.88 230.39 116.47 225.41 C 113.31 218.45 115.57 209.38 122.10 205.18 C 130.43 199.76 142.41 199.24 150.55 205.36 C 157.31 210.35 160.06 218.71 162.91 226.25 C 162.95 217.82 162.65 209.38 163.08 200.96 C 161.90 202.24 160.86 204.00 158.97 204.26 C 155.78 204.92 152.82 203.22 149.98 202.05 C 139.46 197.24 126.07 198.63 117.18 206.21 M 171.59 200.85 C 176.60 201.11 181.62 200.97 186.63 201.01 C 186.61 230.80 186.65 260.59 186.61 290.38 C 181.78 290.37 176.96 290.38 172.13 290.37 C 172.13 290.81 172.12 291.68 172.12 292.12 C 186.08 292.13 200.05 292.13 214.02 292.12 C 214.01 291.68 213.98 290.80 213.97 290.37 C 209.14 290.38 204.33 290.37 199.51 290.38 C 199.48 260.58 199.52 230.79 199.49 201.00 C 208.69 201.46 218.08 200.26 227.12 202.56 C 235.34 204.50 242.83 209.78 246.86 217.28 C 252.29 227.22 252.95 238.94 252.72 250.03 C 252.49 262.78 248.32 275.99 238.95 284.98 C 235.28 288.60 230.48 290.68 225.72 292.45 C 237.13 291.55 248.27 286.45 256.10 278.06 C 263.20 270.51 267.02 260.26 267.55 249.98 C 268.38 237.83 265.60 224.91 257.52 215.49 C 248.30 204.77 233.83 199.72 219.96 199.51 C 205.30 199.21 190.63 199.48 175.96 199.34 C 174.38 199.48 172.17 198.82 171.59 200.85 Z" />
</g>
<g id="#ffffffff">
<path fill="#ffffff" opacity="1.00" d=" M 381.25 139.44 C 381.81 139.46 382.93 139.51 383.49 139.54 C 384.36 148.02 385.24 156.51 386.12 165.00 C 385.39 165.00 383.93 165.00 383.20 165.00 C 381.41 158.60 378.64 151.81 372.70 148.22 C 367.19 144.53 359.40 142.70 353.55 146.66 C 348.18 149.91 347.73 157.89 351.45 162.56 C 354.42 166.31 358.61 168.79 362.62 171.29 C 369.90 175.91 377.75 179.93 383.72 186.29 C 389.50 192.34 390.26 202.15 386.47 209.44 C 382.01 217.85 372.16 222.16 362.91 221.64 C 356.63 221.83 350.96 218.83 344.98 217.49 C 341.64 217.11 342.33 222.50 338.73 221.73 C 337.49 213.10 336.28 204.47 335.11 195.84 C 335.80 195.92 337.18 196.07 337.87 196.15 C 340.62 202.28 343.64 208.67 349.22 212.76 C 355.57 217.56 365.46 219.16 372.00 213.88 C 378.29 208.85 377.88 198.26 371.97 193.09 C 366.66 188.48 360.44 185.11 354.56 181.32 C 349.52 178.21 344.11 175.07 340.99 169.84 C 335.85 161.59 338.39 149.79 346.02 143.94 C 352.70 138.66 362.18 138.42 369.90 141.41 C 372.86 142.15 375.92 144.30 379.00 143.03 C 379.98 141.99 380.57 140.67 381.25 139.44 Z" />
<path fill="#ffffff" opacity="1.00" d=" M 793.19 140.15 C 801.76 138.70 810.91 139.46 818.78 143.34 C 828.52 148.16 836.05 157.32 838.66 167.90 C 840.82 176.60 840.77 185.91 838.35 194.56 C 835.45 204.87 827.80 213.63 818.14 218.18 C 810.04 222.01 800.66 222.61 791.95 220.87 C 778.83 218.23 767.93 207.74 764.06 195.04 C 761.25 185.65 761.28 175.39 764.10 166.01 C 768.03 152.90 779.66 142.45 793.19 140.15 M 795.48 144.59 C 789.97 145.96 785.34 149.70 782.05 154.21 C 777.19 161.11 775.98 169.79 775.65 178.02 C 775.48 186.80 776.12 195.96 780.12 203.94 C 784.04 211.66 792.11 217.51 800.97 217.39 C 810.99 217.63 820.04 210.34 823.43 201.17 C 826.64 192.57 826.92 183.19 826.34 174.13 C 825.70 165.52 823.49 156.25 816.81 150.27 C 811.27 144.89 802.96 142.57 795.48 144.59 Z" />
<path fill="#ffffff" opacity="1.00" d=" M 941.07 200.86 C 949.75 180.45 958.43 160.03 967.07 139.59 C 967.70 139.75 968.96 140.06 969.59 140.22 C 980.39 163.91 990.41 187.99 1001.27 211.66 C 1002.56 215.39 1006.00 217.20 1009.64 217.97 C 1009.76 218.51 1010.00 219.57 1010.12 220.11 C 999.92 220.15 989.73 220.10 979.53 220.13 C 979.51 219.36 979.49 218.59 979.49 217.82 C 982.27 217.14 987.56 218.05 987.74 213.92 C 986.93 206.98 983.10 200.86 980.76 194.37 C 970.32 194.39 959.88 194.37 949.44 194.38 C 947.47 199.63 945.16 204.77 943.46 210.12 C 942.73 212.18 942.74 214.93 944.71 216.31 C 946.63 217.46 948.96 217.46 951.12 217.86 C 951.12 218.42 951.13 219.56 951.13 220.13 C 943.23 220.14 935.34 220.10 927.45 220.15 C 927.42 219.41 927.39 218.68 927.36 217.95 C 929.89 217.28 932.72 216.59 934.31 214.29 C 937.19 210.17 938.98 205.41 941.07 200.86 M 951.55 189.38 C 960.59 189.37 969.63 189.38 978.67 189.37 C 974.17 178.53 969.64 167.70 965.15 156.85 C 960.60 167.69 956.08 178.53 951.55 189.38 Z" />
<path fill="#ffffff" opacity="1.00" d=" M 398.87 141.13 C 410.22 141.14 421.57 141.10 432.92 141.14 C 432.90 141.72 432.86 142.86 432.84 143.43 C 429.80 143.91 426.39 143.86 423.87 145.87 C 421.92 148.09 422.06 151.26 421.89 154.02 C 421.87 167.00 421.85 179.97 421.90 192.95 C 422.07 198.96 422.68 205.55 426.79 210.30 C 430.50 214.72 436.51 216.30 442.08 216.32 C 448.23 216.41 454.98 215.09 459.35 210.41 C 463.96 205.53 464.56 198.44 464.81 192.06 C 464.97 182.36 464.82 172.65 464.88 162.94 C 464.79 158.12 465.15 153.11 463.59 148.48 C 462.46 145.07 458.53 144.35 455.47 143.72 C 453.96 143.65 453.27 142.79 453.42 141.16 C 462.81 141.11 472.20 141.09 481.60 141.17 C 481.48 141.71 481.26 142.78 481.15 143.32 C 478.06 144.29 474.23 144.29 472.13 147.12 C 470.60 149.52 470.49 152.49 470.29 155.25 C 470.12 167.82 470.44 180.39 470.12 192.96 C 469.85 200.62 468.13 208.87 462.40 214.39 C 456.24 220.37 447.22 221.97 438.93 221.77 C 430.86 221.76 422.12 219.70 416.51 213.50 C 411.45 207.99 409.82 200.25 409.75 192.97 C 409.74 180.32 409.77 167.67 409.74 155.01 C 409.58 152.04 409.78 148.75 408.01 146.19 C 405.61 143.86 401.96 143.99 398.88 143.41 C 398.88 142.84 398.87 141.70 398.87 141.13 Z" />
<path fill="#ffffff" opacity="1.00" d=" M 485.49 141.13 C 496.68 141.14 507.86 141.09 519.05 141.15 C 526.94 141.30 535.39 142.24 541.92 147.08 C 549.56 152.67 550.83 164.31 546.21 172.19 C 542.04 178.37 534.42 180.79 527.44 182.07 C 535.13 191.52 542.82 200.97 550.48 210.45 C 552.59 213.02 554.80 215.91 558.15 216.88 C 559.98 217.58 562.84 217.33 562.49 220.11 C 555.96 220.15 549.43 220.11 542.91 220.13 C 532.98 207.89 523.03 195.67 513.12 183.42 C 511.40 183.51 509.70 183.59 508.00 183.67 C 508.02 191.79 507.97 199.91 508.01 208.02 C 508.14 210.47 508.16 213.22 509.78 215.24 C 512.20 217.32 515.60 217.13 518.54 217.92 C 518.65 218.46 518.86 219.56 518.97 220.11 C 507.83 220.15 496.69 220.10 485.55 220.14 C 485.52 219.38 485.50 218.62 485.47 217.86 C 488.41 217.29 491.87 217.30 494.14 215.06 C 495.77 212.40 495.63 209.08 495.75 206.07 C 495.73 188.34 495.78 170.61 495.73 152.89 C 495.57 150.36 495.49 147.36 493.45 145.57 C 491.11 143.99 488.18 143.87 485.50 143.40 C 485.50 142.83 485.49 141.69 485.49 141.13 M 508.01 149.96 C 507.97 159.70 508.01 169.44 508.00 179.17 C 514.86 178.67 522.15 178.70 528.40 175.44 C 538.47 170.15 538.31 152.82 527.79 148.11 C 522.27 145.61 515.92 145.47 510.00 146.23 C 508.20 146.42 507.98 148.54 508.01 149.96 Z" />
<path fill="#ffffff" opacity="1.00" d=" M 559.05 161.54 C 559.26 154.73 559.48 147.93 559.75 141.13 C 582.24 141.13 604.73 141.12 627.22 141.13 C 627.45 147.92 627.63 154.72 627.89 161.51 C 626.89 161.50 625.90 161.49 624.91 161.48 C 623.61 156.87 622.74 151.39 618.60 148.41 C 612.71 145.44 605.86 146.45 599.50 146.25 C 599.50 166.85 599.50 187.45 599.50 208.06 C 599.63 210.57 599.63 213.45 601.41 215.44 C 604.11 217.40 607.66 217.19 610.79 217.89 C 610.89 218.45 611.10 219.56 611.21 220.12 C 599.48 220.13 587.76 220.14 576.03 220.11 C 576.14 219.56 576.35 218.46 576.46 217.91 C 579.47 217.18 582.86 217.35 585.48 215.46 C 587.44 213.15 587.24 209.86 587.48 207.02 C 587.53 186.77 587.47 166.51 587.51 146.26 C 581.16 146.41 574.37 145.49 568.48 148.40 C 564.07 151.17 563.19 156.82 562.03 161.49 C 561.28 161.50 559.79 161.52 559.05 161.54 Z" />
<path fill="#ffffff" opacity="1.00" d=" M 632.99 141.13 C 644.78 141.12 656.58 141.13 668.37 141.12 C 668.38 141.70 668.38 142.84 668.39 143.41 C 665.36 143.79 662.12 143.79 659.40 145.36 C 656.75 147.32 656.93 151.04 656.75 154.00 C 656.76 172.00 656.73 190.01 656.76 208.02 C 656.98 210.69 656.83 214.08 659.25 215.83 C 662.02 217.35 665.30 217.40 668.38 217.85 C 668.38 218.42 668.37 219.56 668.37 220.12 C 656.58 220.13 644.79 220.12 633.00 220.13 C 633.00 219.55 633.00 218.41 633.00 217.84 C 636.24 217.34 639.84 217.39 642.62 215.42 C 644.39 213.44 644.36 210.53 644.50 208.03 C 644.50 190.01 644.48 172.00 644.51 153.98 C 644.41 151.16 644.46 147.87 642.37 145.70 C 639.66 143.78 636.17 143.85 633.02 143.43 C 633.01 142.85 633.00 141.70 632.99 141.13 Z" />
<path fill="#ffffff" opacity="1.00" d=" M 673.47 141.14 C 684.99 141.15 696.52 141.05 708.04 141.19 C 720.18 141.49 733.07 144.25 742.36 152.56 C 749.86 159.15 753.27 169.29 753.38 179.07 C 753.92 190.45 749.67 202.36 740.84 209.82 C 732.21 217.54 720.28 219.88 709.03 220.09 C 697.20 220.18 685.37 220.09 673.54 220.13 C 673.51 219.37 673.49 218.61 673.48 217.85 C 676.44 217.25 679.77 217.20 682.23 215.23 C 684.00 212.90 683.81 209.76 683.99 206.99 C 684.00 189.31 684.02 171.63 683.98 153.95 C 683.79 151.24 683.93 148.14 682.13 145.91 C 679.78 143.85 676.42 143.94 673.51 143.42 C 673.50 142.85 673.48 141.71 673.47 141.14 M 698.20 146.16 C 695.84 146.98 696.26 149.99 696.12 151.96 C 696.18 171.68 696.02 191.41 696.20 211.13 C 695.96 213.42 697.66 215.46 700.03 215.37 C 710.32 216.10 721.49 214.37 729.68 207.66 C 736.14 202.42 739.33 194.14 739.98 186.03 C 740.83 176.53 739.53 166.25 733.62 158.46 C 725.54 147.89 710.87 144.19 698.20 146.16 Z" />
<path fill="#ffffff" opacity="1.00" d=" M 846.62 141.13 C 858.07 141.15 869.52 141.08 880.97 141.16 C 888.80 141.36 897.21 142.45 903.55 147.46 C 910.53 152.91 911.67 163.46 907.99 171.13 C 904.16 178.09 895.92 180.72 888.59 182.06 C 896.57 191.86 904.54 201.67 912.49 211.49 C 914.30 213.69 916.33 215.98 919.15 216.82 C 920.98 217.55 923.99 217.27 923.61 220.11 C 917.09 220.15 910.58 220.12 904.06 220.12 C 894.14 207.89 884.20 195.68 874.29 183.44 C 872.55 183.51 870.84 183.60 869.12 183.67 C 869.16 191.78 869.07 199.89 869.15 207.99 C 869.33 210.59 869.30 213.69 871.36 215.61 C 873.86 217.26 876.97 217.35 879.85 217.84 C 879.86 218.41 879.88 219.55 879.90 220.12 C 868.73 220.12 857.56 220.15 846.40 220.11 C 846.51 219.57 846.73 218.49 846.85 217.95 C 849.61 217.10 852.96 217.34 855.17 215.18 C 856.86 212.84 856.73 209.76 856.88 207.01 C 856.86 188.97 856.88 170.94 856.87 152.90 C 856.78 150.50 856.63 147.82 855.01 145.92 C 852.69 143.95 849.46 143.93 846.62 143.40 C 846.62 142.83 846.62 141.69 846.62 141.13 M 869.15 149.89 C 869.08 159.65 869.15 169.41 869.13 179.18 C 875.95 178.69 883.18 178.70 889.42 175.53 C 899.38 170.44 899.57 153.59 889.60 148.44 C 884.19 145.66 877.85 145.57 871.93 146.08 C 869.79 145.94 869.00 148.12 869.15 149.89 Z" />
<path fill="#ffffff" opacity="1.00" d=" M 333.62 241.00 C 340.31 241.29 347.56 239.96 353.72 243.28 C 363.07 248.87 363.83 263.96 356.08 271.20 C 349.89 276.58 341.14 274.82 333.62 275.12 C 333.62 263.75 333.62 252.38 333.62 241.00 M 337.50 244.50 C 337.50 253.54 337.50 262.58 337.50 271.62 C 342.87 271.55 349.13 272.48 353.42 268.46 C 358.51 263.39 358.56 254.25 354.30 248.66 C 350.21 243.71 343.23 244.49 337.50 244.50 Z" />
<path fill="#ffffff" opacity="1.00" d=" M 392.49 241.00 C 398.83 240.99 405.17 241.00 411.50 241.00 C 411.50 241.88 411.50 243.63 411.50 244.50 C 406.46 244.50 401.42 244.50 396.38 244.50 C 396.37 248.37 396.38 252.25 396.37 256.12 C 401.37 256.13 406.38 256.12 411.38 256.13 C 411.37 257.29 411.37 258.45 411.38 259.62 C 406.38 259.62 401.38 259.62 396.38 259.62 C 396.37 263.62 396.38 267.62 396.37 271.63 C 401.41 271.62 406.46 271.62 411.50 271.62 C 411.50 272.50 411.50 274.25 411.50 275.13 C 405.16 275.12 398.83 275.13 392.49 275.12 C 392.50 263.75 392.50 252.37 392.49 241.00 Z" />
<path fill="#ffffff" opacity="1.00" d=" M 443.25 241.01 C 448.33 241.12 453.51 240.61 458.51 241.72 C 466.43 244.04 467.22 256.56 460.16 260.37 C 456.13 262.39 451.46 261.60 447.13 261.75 C 447.12 266.20 447.12 270.66 447.12 275.13 C 445.83 275.12 444.54 275.12 443.25 275.12 C 443.25 263.75 443.25 252.38 443.25 241.01 M 447.13 244.49 C 447.12 249.08 447.12 253.66 447.12 258.25 C 450.55 258.11 454.13 258.73 457.43 257.54 C 462.40 255.70 462.47 247.41 457.62 245.38 C 454.29 244.05 450.62 244.62 447.13 244.49 Z" />
<path fill="#ffffff" opacity="1.00" d=" M 502.32 241.03 C 503.57 241.01 504.83 241.00 506.09 240.99 C 510.79 252.36 515.50 263.74 520.20 275.12 C 518.76 275.12 517.33 275.12 515.91 275.13 C 514.59 271.96 513.28 268.79 511.97 265.62 C 506.72 265.62 501.48 265.62 496.24 265.62 C 494.95 268.80 493.66 271.97 492.36 275.13 C 491.29 275.13 489.17 275.13 488.11 275.12 C 492.84 263.76 497.62 252.41 502.32 241.03 M 497.45 262.37 C 501.89 262.38 506.33 262.37 510.77 262.38 C 508.52 256.80 506.36 251.19 504.08 245.63 C 501.86 251.20 499.65 256.79 497.45 262.37 Z" />
<path fill="#ffffff" opacity="1.00" d=" M 549.62 241.00 C 555.12 241.16 560.77 240.54 566.16 241.89 C 573.81 244.33 575.09 256.15 568.74 260.70 C 567.15 261.82 565.14 262.02 563.33 262.55 C 566.18 266.71 568.94 270.93 571.74 275.12 C 570.28 275.12 568.82 275.11 567.38 275.11 C 564.18 270.13 560.96 265.15 557.71 260.20 C 560.42 260.03 563.42 260.41 565.82 258.87 C 570.34 255.76 569.95 247.82 564.95 245.39 C 561.35 244.01 557.39 244.64 553.62 244.50 C 553.62 254.71 553.62 264.92 553.63 275.12 C 552.28 275.12 550.95 275.12 549.62 275.13 C 549.62 263.75 549.62 252.38 549.62 241.00 Z" />
<path fill="#ffffff" opacity="1.00" d=" M 600.00 241.00 C 606.87 241.00 613.75 240.99 620.63 241.01 C 620.62 242.17 620.61 243.34 620.62 244.51 C 617.83 244.50 615.04 244.50 612.26 244.50 C 612.24 254.71 612.25 264.92 612.25 275.13 C 610.95 275.12 609.66 275.12 608.37 275.12 C 608.38 264.92 608.37 254.71 608.38 244.50 C 605.58 244.50 602.79 244.50 600.01 244.51 C 600.00 243.33 599.99 242.17 600.00 241.00 Z" />
<path fill="#ffffff" opacity="1.00" d=" M 658.06 241.00 C 659.29 241.00 660.54 241.00 661.79 241.00 C 666.49 252.38 671.19 263.75 675.90 275.12 C 674.83 275.12 672.69 275.13 671.62 275.13 C 670.29 271.97 668.98 268.80 667.68 265.63 C 662.43 265.62 657.18 265.62 651.93 265.62 C 650.64 268.79 649.34 271.96 648.06 275.13 C 646.63 275.12 645.21 275.12 643.81 275.12 C 648.55 263.74 653.29 252.37 658.06 241.00 M 653.13 262.37 C 657.57 262.38 662.02 262.37 666.47 262.38 C 664.24 256.78 661.99 251.20 659.79 245.60 C 657.56 251.18 655.36 256.79 653.13 262.37 Z" />
<path fill="#ffffff" opacity="1.00" d=" M 705.62 241.00 C 707.43 241.00 709.25 241.00 711.08 241.00 C 715.24 250.45 719.42 259.90 723.58 269.35 C 727.78 259.92 731.90 250.44 736.07 240.99 C 737.87 241.00 739.69 241.00 741.51 241.01 C 741.46 251.99 741.57 262.98 741.47 273.96 C 741.82 276.11 738.85 274.70 737.75 275.22 C 737.73 265.23 737.97 255.24 737.87 245.26 C 733.51 255.21 729.18 265.17 724.84 275.13 C 724.20 275.13 722.93 275.12 722.30 275.12 C 717.96 265.20 713.65 255.27 709.26 245.37 C 709.24 255.29 709.25 265.21 709.25 275.12 C 708.34 275.13 706.53 275.13 705.62 275.13 C 705.62 263.75 705.62 252.37 705.62 241.00 Z" />
<path fill="#ffffff" opacity="1.00" d=" M 774.37 241.00 C 780.66 240.99 786.96 241.00 793.25 241.00 C 793.25 241.87 793.25 243.63 793.25 244.50 C 788.25 244.50 783.25 244.51 778.25 244.50 C 778.25 248.37 778.25 252.25 778.25 256.13 C 783.21 256.12 788.16 256.13 793.13 256.12 C 793.13 257.00 793.13 258.75 793.13 259.62 C 788.16 259.62 783.21 259.63 778.25 259.62 C 778.25 263.62 778.25 267.62 778.25 271.63 C 783.25 271.62 788.25 271.62 793.25 271.62 C 793.25 272.50 793.25 274.25 793.25 275.13 C 786.96 275.12 780.66 275.13 774.37 275.12 C 774.38 263.75 774.38 252.38 774.37 241.00 Z" />
<path fill="#ffffff" opacity="1.00" d=" M 825.24 241.01 C 826.56 241.00 827.88 240.99 829.22 240.98 C 835.82 250.36 842.41 259.75 848.99 269.14 C 849.01 259.76 848.99 250.38 849.00 241.00 C 850.24 241.00 851.49 241.00 852.75 241.01 C 852.74 252.38 852.75 263.75 852.75 275.12 C 851.50 275.12 850.25 275.12 849.02 275.13 C 842.35 265.66 835.69 256.19 829.00 246.73 C 828.90 256.20 829.19 265.66 829.13 275.13 C 827.82 275.12 826.53 275.12 825.25 275.12 C 825.25 263.75 825.26 252.38 825.24 241.01 Z" />
<path fill="#ffffff" opacity="1.00" d=" M 882.62 241.00 C 889.50 241.00 896.37 241.00 903.25 241.00 C 903.25 241.88 903.25 243.63 903.25 244.50 C 900.45 244.48 897.65 244.52 894.86 244.52 C 894.89 254.72 894.86 264.92 894.87 275.13 C 893.53 275.12 892.20 275.12 890.87 275.12 C 890.87 264.91 890.88 254.71 890.87 244.50 C 888.12 244.50 885.37 244.50 882.62 244.50 C 882.62 243.63 882.62 241.88 882.62 241.00 Z" />
<path fill="#ffffff" opacity="1.00" d=" M 940.51 241.13 C 941.76 241.06 943.03 240.99 944.30 240.90 C 949.06 252.29 953.75 263.71 958.47 275.12 C 957.03 275.12 955.60 275.12 954.18 275.13 C 952.87 271.96 951.55 268.79 950.25 265.62 C 944.99 265.63 939.74 265.61 934.50 265.64 C 933.22 268.80 931.92 271.95 930.66 275.11 C 929.22 275.11 927.80 275.12 926.40 275.12 C 931.05 263.77 935.93 252.51 940.51 241.13 M 935.72 262.37 C 940.16 262.38 944.60 262.38 949.05 262.37 C 946.79 256.79 944.62 251.18 942.36 245.61 C 940.14 251.20 937.93 256.78 935.72 262.37 Z" />
<path fill="#ffffff" opacity="1.00" d=" M 988.25 241.00 C 989.57 241.00 990.90 241.00 992.25 241.00 C 992.25 251.21 992.25 261.42 992.25 271.63 C 996.54 271.62 1000.83 271.62 1005.12 271.62 C 1005.12 272.50 1005.13 274.25 1005.13 275.13 C 999.50 275.12 993.87 275.13 988.25 275.12 C 988.25 263.75 988.25 252.38 988.25 241.00 Z" />
</g>
</svg>
